<?xml version="1.0" standalone="no"?>
<svg xmlns:xlink="http://www.w3.org/1999/xlink" id="wave" style="transform: rotate(180deg); transition: all 0.3s ease 0s; user-select: auto;" viewBox="0 0 1440 490" version="1.1" xmlns="http://www.w3.org/2000/svg"><defs style="user-select: auto;"><linearGradient id="sw-gradient-0" x1="0" x2="0" y1="1" y2="0" style="user-select: auto;"><stop stop-color="rgba(135, 78, 159, 1)" offset="0%" style="user-select: auto;"/><stop stop-color="rgba(196, 99, 152, 1)" offset="100%" style="user-select: auto;"/></linearGradient></defs><path style="transform: translate(0px, 0px); opacity: 1; user-select: auto;" fill="url(#sw-gradient-0)" d="M0,343L80,310.3C160,278,320,212,480,196C640,180,800,212,960,196C1120,180,1280,114,1440,114.3C1600,114,1760,180,1920,212.3C2080,245,2240,245,2400,245C2560,245,2720,245,2880,253.2C3040,261,3200,278,3360,302.2C3520,327,3680,359,3840,375.7C4000,392,4160,392,4320,367.5C4480,343,4640,294,4800,269.5C4960,245,5120,245,5280,228.7C5440,212,5600,180,5760,138.8C5920,98,6080,49,6240,73.5C6400,98,6560,196,6720,253.2C6880,310,7040,327,7200,351.2C7360,376,7520,408,7680,400.2C7840,392,8000,343,8160,326.7C8320,310,8480,327,8640,326.7C8800,327,8960,310,9120,310.3C9280,310,9440,327,9600,294C9760,261,9920,180,10080,196C10240,212,10400,327,10560,318.5C10720,310,10880,180,11040,171.5C11200,163,11360,278,11440,334.8L11520,392L11520,490L11440,490C11360,490,11200,490,11040,490C10880,490,10720,490,10560,490C10400,490,10240,490,10080,490C9920,490,9760,490,9600,490C9440,490,9280,490,9120,490C8960,490,8800,490,8640,490C8480,490,8320,490,8160,490C8000,490,7840,490,7680,490C7520,490,7360,490,7200,490C7040,490,6880,490,6720,490C6560,490,6400,490,6240,490C6080,490,5920,490,5760,490C5600,490,5440,490,5280,490C5120,490,4960,490,4800,490C4640,490,4480,490,4320,490C4160,490,4000,490,3840,490C3680,490,3520,490,3360,490C3200,490,3040,490,2880,490C2720,490,2560,490,2400,490C2240,490,2080,490,1920,490C1760,490,1600,490,1440,490C1280,490,1120,490,960,490C800,490,640,490,480,490C320,490,160,490,80,490L0,490Z"/></svg>