<?xml version="1.0" standalone="no"?><svg xmlns="http://www.w3.org/2000/svg" viewBox="0 0 1440 320" style="user-select: auto;"><path fill="#0099ff" fill-opacity="1" d="M0,288L40,277.3C80,267,160,245,240,208C320,171,400,117,480,117.3C560,117,640,171,720,208C800,245,880,267,960,256C1040,245,1120,203,1200,154.7C1280,107,1360,53,1400,26.7L1440,0L1440,320L1400,320C1360,320,1280,320,1200,320C1120,320,1040,320,960,320C880,320,800,320,720,320C640,320,560,320,480,320C400,320,320,320,240,320C160,320,80,320,40,320L0,320Z" style="user-select: auto;"></path></svg>